<?xml version="1.0" standalone="no"?>
<!DOCTYPE svg PUBLIC "-//W3C//DTD SVG 20010904//EN"
 "http://www.w3.org/TR/2001/REC-SVG-20010904/DTD/svg10.dtd">
<svg version="1.0" xmlns="http://www.w3.org/2000/svg"
 width="800.000000pt" height="800.000000pt" viewBox="0 0 800.000000 800.000000"
 preserveAspectRatio="xMidYMid meet">
<metadata>
Created by potrace 1.14, written by Peter Selinger 2001-2017
</metadata>
<g transform="translate(0.000000,800.000000) scale(0.100000,-0.100000)"
fill="#000000" stroke="none">
<path d="M4661 7611 c-8 -5 -20 -7 -28 -4 -8 3 -22 -2 -33 -12 -11 -10 -28
-15 -39 -12 -13 3 -21 -1 -25 -15 -3 -15 -11 -19 -25 -15 -12 3 -24 1 -27 -4
-3 -5 -11 -9 -17 -8 -7 1 -30 -1 -51 -6 -25 -5 -46 -4 -57 3 -12 8 -20 8 -24
1 -4 -6 -11 -6 -18 -1 -25 19 -128 46 -167 43 -8 -1 -49 -2 -90 -1 -41 0 -90
-5 -108 -11 -18 -6 -54 -12 -80 -14 -83 -6 -152 -18 -152 -26 0 -5 -18 -9 -39
-9 -22 0 -46 -6 -53 -13 -18 -17 -87 -37 -132 -37 -20 0 -36 -4 -36 -10 0 -5
-11 -10 -25 -10 -16 0 -25 -6 -25 -15 0 -8 -8 -15 -17 -15 -16 0 -78 -42 -125
-84 -10 -9 -20 -16 -23 -16 -3 0 -20 -1 -37 -1 l-33 -1 30 -8 30 -8 -28 -1
c-16 0 -26 -5 -23 -10 7 -10 -16 -21 -44 -21 -10 0 -31 -5 -47 -12 -15 -6 -33
-12 -40 -14 -6 -1 -33 -18 -59 -38 -26 -20 -51 -36 -56 -36 -5 0 -6 -4 -3 -10
3 -5 1 -10 -5 -10 -9 0 -78 -66 -164 -159 -16 -17 -33 -31 -38 -31 -4 0 -8 -4
-8 -10 0 -12 -24 -41 -64 -78 -76 -69 -137 -139 -143 -162 -3 -14 -23 -43 -44
-64 -21 -22 -40 -51 -44 -64 -3 -14 -22 -57 -41 -96 -19 -39 -34 -79 -34 -89
0 -26 -38 -97 -53 -97 -9 0 -9 -2 1 -9 10 -6 10 -17 -3 -55 -9 -25 -13 -51
-10 -56 3 -5 -3 -18 -13 -28 -13 -13 -16 -23 -9 -34 7 -11 1 -29 -25 -69 -65
-101 -69 -109 -57 -109 7 0 4 -9 -7 -22 -10 -12 -13 -18 -6 -14 7 4 12 2 12
-5 0 -8 5 -7 17 2 13 11 13 8 -2 -12 -11 -15 -24 -24 -29 -21 -5 3 -6 0 -2 -7
4 -6 -2 -36 -14 -67 -16 -44 -18 -59 -9 -71 9 -10 9 -17 1 -25 -15 -15 -16
-55 -2 -60 6 -2 6 -15 0 -38 -13 -47 -20 -198 -9 -202 4 -2 4 -20 0 -40 -9
-39 -4 -91 9 -83 4 3 11 -16 15 -40 10 -69 -15 -139 -72 -205 -26 -30 -42 -51
-35 -46 8 5 12 0 12 -16 0 -23 -5 -24 -110 -35 -128 -14 -172 -32 -207 -84
-27 -41 -45 -49 -115 -49 -42 0 -48 -3 -54 -24 -12 -47 -2 -60 57 -75 l56 -14
6 -146 c11 -260 57 -387 162 -456 44 -29 46 -31 41 -70 -32 -239 -29 -332 24
-642 55 -322 103 -479 218 -708 61 -123 201 -380 285 -525 30 -52 84 -147 120
-210 37 -63 77 -131 89 -150 27 -41 207 -221 293 -293 33 -27 64 -57 69 -66 6
-9 10 -45 10 -81 l1 -65 -72 -100 c-40 -55 -80 -114 -88 -132 -9 -18 -20 -35
-26 -39 -6 -3 -14 -17 -19 -30 -5 -13 -16 -24 -24 -24 -7 0 -16 -12 -19 -26
-4 -21 -1 -25 14 -21 22 6 24 3 34 -41 4 -20 3 -32 -4 -32 -6 0 -11 8 -12 18
0 13 -2 14 -6 2 -3 -8 -12 -22 -20 -31 -11 -13 -12 -26 -3 -65 6 -26 16 -54
21 -61 7 -8 4 -20 -11 -41 -23 -31 -38 -32 -89 -6 -14 7 -28 11 -33 8 -4 -3
-8 1 -8 9 0 8 -6 20 -14 26 -19 16 -58 -7 -51 -29 2 -8 -4 -24 -13 -35 -22
-27 -115 -85 -134 -85 -8 0 -43 -18 -77 -40 -34 -22 -67 -40 -72 -40 -16 0
-136 -58 -151 -73 -7 -7 -33 -19 -57 -26 -24 -7 -67 -23 -95 -36 -60 -28 -194
-78 -251 -93 -22 -6 -78 -31 -125 -55 -47 -24 -97 -47 -111 -50 -15 -4 -51
-23 -80 -43 -30 -20 -67 -41 -84 -47 -16 -5 -39 -16 -49 -23 -31 -21 158 -18
190 3 13 8 24 11 24 5 0 -6 -6 -13 -12 -15 -7 -3 10 -6 38 -6 30 -1 58 5 70
14 25 19 38 19 30 0 -5 -13 18 -15 172 -15 155 1 175 2 158 15 -24 18 -15 65
14 65 10 0 22 -5 25 -10 4 -6 11 -8 16 -5 13 9 11 -2 -6 -36 l-16 -30 135 3
c127 3 135 4 140 24 9 33 71 106 102 119 24 10 34 9 56 -5 27 -16 29 -34 4
-24 -18 7 -98 -24 -123 -48 -13 -12 -23 -32 -23 -45 l0 -23 219 0 219 0 10 28
9 27 13 -27 13 -28 539 0 c400 0 543 3 557 12 15 9 25 9 46 0 15 -7 72 -12
138 -12 l112 0 28 35 c15 19 32 35 37 35 6 0 27 -16 49 -35 38 -34 40 -35 125
-35 l86 0 41 45 c23 25 45 45 50 45 18 0 80 -64 75 -76 -4 -11 13 -14 87 -13
l92 0 30 42 c17 23 37 43 46 45 20 4 81 -58 75 -75 -4 -10 13 -13 83 -13 80 0
89 2 111 25 30 32 50 32 84 0 l27 -25 396 0 397 0 -27 28 c-33 34 -34 49 -4
85 l22 28 37 -28 c43 -32 46 -44 17 -84 l-20 -29 65 0 c54 0 67 3 76 19 11 21
41 19 61 -5 15 -18 69 -19 69 -1 0 7 -6 19 -12 26 -11 10 -1 11 47 9 51 -3 61
-6 70 -25 9 -20 17 -23 73 -23 l63 0 -15 22 c-24 34 -20 42 29 60 l45 17 17
-26 c16 -24 16 -26 -2 -39 -10 -8 -27 -14 -36 -14 -10 0 -21 -4 -24 -10 -4 -7
101 -10 306 -10 244 0 310 3 301 12 -7 7 -12 16 -12 20 0 12 52 -2 71 -19 12
-10 35 -13 75 -11 l58 3 -113 100 c-192 169 -281 244 -399 334 -63 47 -133
102 -157 121 -131 106 -262 200 -320 230 -65 34 -89 54 -141 118 -14 18 -29
30 -32 27 -3 -3 -17 16 -31 42 -27 49 -80 84 -174 114 -38 13 -62 40 -54 62 5
14 -58 198 -71 206 -15 10 -42 68 -42 90 0 34 -41 131 -55 131 -16 0 -25 22
-25 61 0 37 -54 156 -103 227 l-36 52 5 148 c2 81 7 190 10 242 3 52 5 112 4
132 0 20 4 39 10 43 5 3 10 16 10 28 0 24 19 80 38 114 7 12 12 34 12 50 0 22
2 25 10 13 10 -15 16 48 11 112 -2 23 4 30 41 48 130 61 308 325 403 598 25
73 68 175 96 226 100 188 107 380 18 518 -17 26 -44 58 -60 69 -16 11 -26 25
-23 31 3 5 8 24 10 41 6 56 37 192 45 195 4 2 5 18 2 36 -4 25 0 39 15 54 16
16 18 27 12 61 -4 22 -4 41 0 41 5 0 6 9 3 20 -3 11 0 27 7 35 6 8 9 18 6 24
-3 5 -2 21 4 36 9 23 17 110 23 243 1 17 4 32 7 32 4 0 7 17 7 38 1 20 2 72 4
115 1 42 5 77 9 77 4 0 6 25 5 55 -1 31 1 58 6 60 4 3 1 17 -6 32 -9 17 -11
32 -5 44 15 27 15 72 0 99 -9 17 -10 25 -2 28 8 2 7 11 -3 26 -8 12 -12 26 -8
30 11 11 12 110 1 123 -5 7 -6 18 -2 24 5 9 2 10 -9 6 -21 -8 -34 12 -16 24 8
5 10 9 4 9 -6 0 -10 41 -11 103 0 56 -6 127 -12 157 -6 30 -18 93 -27 140 -18
104 -21 111 -38 104 -18 -7 -35 14 -42 54 -5 28 -3 32 17 32 22 1 22 1 -4 18
-16 9 -28 20 -28 24 0 5 -8 8 -17 8 -31 0 -46 16 -38 39 3 11 11 21 16 21 15
0 89 34 89 42 0 3 -11 15 -25 26 -14 11 -25 26 -25 33 0 7 -3 9 -7 6 -10 -10
-33 13 -33 33 0 10 -6 20 -12 23 -18 5 -48 -3 -48 -14 0 -5 -21 -9 -47 -9
l-48 1 40 14 c22 8 49 15 60 16 l20 1 -20 5 c-11 3 -23 10 -27 17 -6 8 -8 7
-8 -1 0 -7 -7 -13 -15 -13 -23 0 -18 15 15 48 33 33 29 41 -28 60 -31 11 -32
10 -28 -13 4 -22 -19 -44 -32 -30 -3 3 0 5 6 5 7 0 12 5 12 11 0 5 -5 7 -12 3
-7 -5 -8 -3 -3 6 4 7 2 16 -6 21 -11 7 -11 9 -1 9 10 0 10 5 2 21 -7 11 -9 26
-7 33 3 7 -8 21 -23 31 -15 10 -26 24 -23 31 4 12 -64 112 -73 107 -13 -8 -25
-1 -20 12 4 13 -32 44 -42 36 -2 -2 -7 1 -10 5 -4 4 -1 4 6 0 6 -4 12 -2 12 4
0 7 -7 9 -16 6 -9 -4 -49 9 -91 29 -80 38 -111 61 -91 67 22 8 -167 92 -277
123 -33 9 -93 30 -133 47 -59 23 -76 27 -88 17 -8 -6 -17 -9 -21 -5 -3 3 -1 6
6 6 7 0 9 5 5 11 -3 6 -17 8 -30 5 -13 -4 -24 -3 -24 2 0 14 -89 30 -147 28
-44 -2 -58 1 -81 21 -80 70 -138 95 -171 74z m1224 -521 c27 -30 12 -34 -15
-5 -13 14 -19 25 -13 25 5 0 18 -9 28 -20z m85 -145 c0 -8 -2 -15 -4 -15 -2 0
-6 7 -10 15 -3 8 -1 15 4 15 6 0 10 -7 10 -15z m-2530 -1361 c0 -8 -5 -12 -10
-9 -6 4 -8 11 -5 16 9 14 15 11 15 -7z m674 -19 c-4 -8 -11 -15 -16 -15 -6 0
-5 6 2 15 7 8 14 15 16 15 2 0 1 -7 -2 -15z m-854 -365 c0 -5 -2 -10 -4 -10
-3 0 -8 5 -11 10 -3 6 -1 10 4 10 6 0 11 -4 11 -10z m57 -2 c-2 -7 -12 -12
-22 -10 -10 2 -14 -1 -10 -7 3 -6 -1 -11 -11 -11 -13 0 -15 -3 -7 -11 8 -8 17
-8 31 0 30 16 49 13 26 -4 -22 -17 -12 -20 17 -5 27 15 24 0 -6 -29 -23 -21
-29 -40 -28 -79 1 -9 -12 -12 -38 -10 -29 1 -36 5 -28 14 7 8 6 14 -2 19 -6 4
-15 1 -20 -6 -5 -8 -9 -9 -9 -3 0 5 5 15 12 22 18 18 2 26 -50 26 -26 -1 -36
1 -23 3 14 3 35 12 48 20 13 8 23 11 23 5 0 -6 -6 -13 -12 -15 -10 -4 -10 -6
0 -6 7 -1 18 12 23 29 6 16 25 38 42 49 37 24 51 26 44 9z m-387 -12 c0 -3 -4
-8 -10 -11 -5 -3 -10 -1 -10 4 0 6 5 11 10 11 6 0 10 -2 10 -4z m300 -12 c0
-8 -5 -12 -10 -9 -6 4 -8 11 -5 16 9 14 15 11 15 -7z m-285 -24 c3 -5 1 -10
-4 -10 -6 0 -11 5 -11 10 0 6 2 10 4 10 3 0 8 -4 11 -10z m142 -22 c-3 -8 -6
-5 -6 6 -1 11 2 17 5 13 3 -3 4 -12 1 -19z m303 12 c0 -5 -4 -10 -10 -10 -5 0
-10 5 -10 10 0 6 5 10 10 10 6 0 10 -4 10 -10z m10 -83 c0 -16 -2 -17 -15 -3
-8 8 -15 25 -15 37 0 22 0 22 15 3 8 -10 15 -27 15 -37z m-50 24 c0 -3 -5 -13
-11 -21 -9 -13 -10 -12 -5 3 3 9 1 17 -4 17 -6 0 -10 4 -10 10 0 5 7 7 15 4 8
-4 15 -9 15 -13z m134 -17 c-3 -11 -14 -20 -24 -21 -16 -1 -18 1 -8 17 7 10
16 16 22 13 6 -4 7 1 2 13 -5 13 -4 16 3 9 6 -6 8 -19 5 -31z m-304 6 c0 -5
-2 -10 -4 -10 -3 0 -8 5 -11 10 -3 6 -1 10 4 10 6 0 11 -4 11 -10z m354 -25
c6 -16 -19 -33 -31 -21 -4 3 -1 6 5 6 6 0 9 7 6 15 -4 8 -2 15 4 15 5 0 13 -7
16 -15z m-949 -197 c13 -5 7 -6 -20 -2 -22 3 -47 10 -55 15 -18 11 46 0 75
-13z m82 -24 c-3 -3 -12 -4 -19 -1 -8 3 -5 6 6 6 11 1 17 -2 13 -5z m-75 -66
c3 -7 2 -35 -1 -63 l-6 -50 -85 0 c-69 0 -85 3 -85 15 0 8 8 16 19 18 11 3 16
0 12 -7 -4 -6 -2 -11 3 -11 7 0 11 23 11 55 l0 55 64 0 c42 0 65 -4 68 -12z
m1435 -98 c18 -6 -3 -7 -62 -3 -49 3 -99 10 -110 15 -26 11 133 0 172 -12z
m-23 -30 c22 -8 26 -16 26 -50 0 -25 -4 -39 -10 -35 -5 3 -10 0 -10 -8 0 -20
-38 -28 -94 -21 l-46 7 0 58 0 59 54 0 c30 0 66 -4 80 -10z m-1480 -6 c29 -11
17 -24 -23 -24 -38 0 -57 10 -44 24 8 8 46 8 67 0z m116 -14 c0 -5 -7 -10 -16
-10 -8 0 -12 5 -9 10 3 6 10 10 16 10 5 0 9 -4 9 -10z m605 -50 c13 -6 5 -7
-25 -3 -25 3 -47 7 -49 9 -9 8 55 2 74 -6z m250 -49 c10 -21 12 -32 4 -36 -13
-9 -49 28 -49 50 0 26 29 17 45 -14z m490 -31 c-3 -5 -29 -10 -56 -10 -31 0
-48 4 -44 10 3 6 29 10 56 10 31 0 48 -4 44 -10z m-510 -63 c11 -20 24 -37 28
-37 4 0 3 9 -3 21 -7 11 -10 23 -7 25 2 2 9 -7 15 -21 13 -29 3 -39 -30 -26
-15 6 -28 22 -35 46 -15 48 4 43 32 -8z m556 -8 c4 -8 9 -33 12 -56 2 -23 12
-54 21 -68 l18 -27 -34 7 c-18 4 -37 14 -41 22 -7 11 -12 11 -22 3 -10 -9 -19
-9 -32 0 -16 9 -15 10 7 5 23 -6 23 -5 8 8 -24 19 -23 58 1 64 16 4 17 8 8 18
-7 7 -18 10 -24 8 -19 -8 -15 15 4 26 23 13 64 7 74 -10z m109 -29 c0 -5 -7
-10 -15 -10 -8 0 -15 5 -15 10 0 6 7 10 15 10 8 0 15 -4 15 -10z m160 -4 c0
-3 -4 -8 -10 -11 -5 -3 -10 -1 -10 4 0 6 5 11 10 11 6 0 10 -2 10 -4z m-723
-170 c-3 -23 -11 -42 -16 -44 -6 -2 -11 -9 -11 -16 0 -16 -39 -48 -50 -41 -6
4 -10 14 -10 24 0 9 -6 23 -12 30 -10 11 -10 13 0 7 17 -10 15 -2 -8 24 -31
35 -25 61 21 94 36 25 40 32 35 60 -4 22 3 12 25 -34 24 -51 30 -73 26 -104z
m-162 42 c3 -36 1 -47 -5 -33 -9 22 -13 102 -4 93 3 -3 7 -30 9 -60z m295 28
c-14 -14 -24 0 -16 21 6 15 8 15 16 3 6 -9 5 -19 0 -24z m1240 24 c0 -5 -4
-10 -10 -10 -5 0 -10 5 -10 10 0 6 5 10 10 10 6 0 10 -4 10 -10z m-1321 -216
c5 4 12 2 16 -4 3 -5 15 -10 26 -10 10 0 18 -6 17 -12 -2 -7 2 -12 9 -11 7 2
10 -4 7 -12 -4 -9 0 -15 9 -15 9 0 23 -7 32 -16 13 -13 13 -19 3 -32 -10 -12
-10 -14 0 -8 8 5 12 1 13 -11 1 -17 2 -17 6 0 5 20 23 23 23 3 0 -8 2 -20 5
-28 2 -7 -6 -21 -19 -30 -20 -15 -26 -15 -42 -3 -18 13 -17 14 6 9 21 -4 22
-3 8 5 -9 6 -25 10 -35 9 -42 -3 -62 3 -68 23 -4 11 -9 18 -13 15 -8 -8 -42
24 -42 40 0 8 7 11 18 8 12 -4 13 -3 4 4 -9 6 -11 18 -6 36 4 16 1 33 -7 44
-13 15 -12 16 3 4 9 -8 22 -11 27 -8z m2279 -132 c2 -7 -4 -15 -13 -18 -20 -8
-27 -1 -19 20 7 18 25 17 32 -2z m-2285 -32 c44 -30 74 -39 62 -20 -3 5 0 7 9
4 8 -3 12 -12 9 -20 -3 -8 -4 -14 -2 -14 2 0 35 -11 74 -25 68 -25 202 -60
340 -88 64 -14 67 -15 30 -17 l-40 -3 35 -8 c74 -17 -107 3 -203 22 -113 23
-212 56 -282 92 -56 29 -56 35 -1 12 45 -19 47 -11 4 11 -36 18 -88 63 -88 76
0 13 6 10 53 -22z m192 -30 c-3 -5 -11 -10 -16 -10 -6 0 -7 5 -4 10 3 6 11 10
16 10 6 0 7 -4 4 -10z m2036 -163 c-1 -12 -15 -9 -19 4 -3 6 1 10 8 8 6 -3 11
-8 11 -12z m37 -64 c29 -57 36 -94 17 -87 -13 5 -21 28 -13 37 2 1 -5 13 -15
27 -16 23 -23 60 -12 60 2 0 13 -17 23 -37z m-2750 -126 c-3 -20 -52 -57 -61
-47 -8 9 5 80 14 74 5 -3 9 0 9 6 0 8 6 8 21 0 13 -7 19 -19 17 -33z m-189 -1
c21 -22 21 -24 4 -30 -17 -7 -17 -8 0 -17 22 -13 23 -41 1 -32 -13 5 -13 7 -2
15 9 6 3 8 -17 6 -16 -2 -34 -7 -38 -13 -5 -6 -7 -3 -3 7 3 10 2 20 -3 22 -12
8 -6 47 10 57 20 13 23 12 48 -15z m1508 -55 c15 5 32 8 40 5 7 -3 13 1 13 9
0 8 5 15 10 15 6 0 10 -5 10 -12 0 -9 3 -9 12 0 19 19 28 14 28 -15 -1 -53 5
-78 20 -85 11 -5 9 -7 -7 -7 -13 -1 -23 -5 -23 -10 0 -17 -42 -23 -67 -10 -20
11 -26 11 -33 -1 -7 -10 -10 -11 -10 -2 0 6 -8 12 -17 12 -14 0 -15 -2 -4 -9
10 -7 10 -10 1 -16 -7 -4 -16 -2 -20 5 -4 6 -10 11 -14 11 -25 -4 -27 2 -6 14
l25 14 -32 1 c-18 0 -33 -4 -33 -10 0 -5 -4 -10 -10 -10 -5 0 -10 7 -10 15 0
8 -11 17 -25 21 -14 3 -25 12 -25 20 0 8 -6 14 -14 14 -8 0 -22 3 -32 7 -14 5
-16 2 -12 -15 4 -16 2 -22 -9 -22 -12 0 -14 7 -8 27 9 37 9 37 44 25 28 -10
31 -9 37 14 5 18 13 24 33 24 15 0 31 -3 34 -7 4 -3 18 -8 32 -9 18 -2 25 2
26 14 0 10 5 6 10 -10 9 -24 13 -26 36 -17z m-7 23 c0 -8 -5 -12 -10 -9 -6 4
-8 11 -5 16 9 14 15 11 15 -7z m-300 -9 c0 -8 -4 -15 -10 -15 -5 0 -10 7 -10
15 0 8 5 15 10 15 6 0 10 -7 10 -15z m450 -16 c0 -5 -4 -9 -10 -9 -5 0 -10 7
-10 16 0 8 5 12 10 9 6 -3 10 -10 10 -16z m1257 -29 c3 -17 10 -33 14 -36 14
-8 11 -34 -4 -34 -15 0 -59 84 -50 94 15 15 34 3 40 -24z m-1180 -2 c-3 -8 -6
-5 -6 6 -1 11 2 17 5 13 3 -3 4 -12 1 -19z m-1852 -645 c17 -3 37 -11 45 -18
30 -24 70 -35 129 -35 45 -1 89 -25 97 -54 3 -12 1 -38 -4 -57 -8 -33 -10 -34
-56 -32 -61 2 -94 29 -91 75 1 18 -4 38 -10 45 -10 10 -15 6 -25 -17 -7 -16
-18 -34 -25 -40 -19 -16 -62 23 -69 65 -4 19 -15 40 -25 47 -9 7 -21 19 -26
27 -6 11 -4 13 11 7 10 -4 33 -10 49 -13z m440 -77 c24 -9 48 -11 61 -6 29 11
101 1 115 -16 14 -17 36 -18 41 -3 5 16 163 24 172 10 7 -11 -29 -72 -46 -79
-5 -2 -6 -8 -2 -13 3 -5 1 -9 -5 -9 -5 0 -13 -9 -16 -21 -8 -25 -43 -22 -59 5
-6 11 -19 28 -28 38 -10 10 -18 23 -18 29 0 16 -20 -1 -30 -25 -13 -34 -114
-59 -149 -37 -18 11 -41 3 -41 -14 0 -18 -78 -25 -92 -8 -6 7 -15 10 -22 6 -6
-3 -8 -3 -4 2 4 4 0 13 -8 20 -22 16 -21 91 2 116 20 23 72 25 129 5z m208
-136 c3 -11 1 -20 -4 -20 -11 0 -30 36 -22 43 9 10 20 0 26 -23z m167 20 c0
-5 -5 -10 -11 -10 -5 0 -7 5 -4 10 3 6 8 10 11 10 2 0 4 -4 4 -10z m-420 -234
c0 -3 -4 -8 -10 -11 -5 -3 -10 -1 -10 4 0 6 5 11 10 11 6 0 10 -2 10 -4z
m2503 -712 c-9 -23 -26 -11 -29 20 -3 27 -2 27 16 11 10 -9 16 -23 13 -31z
m-47 -79 c16 -24 12 -65 -6 -65 -14 0 -30 35 -30 64 0 33 15 33 36 1z m134
-64 c6 -16 10 -40 8 -53 -3 -22 -4 -22 -21 9 -18 34 -23 73 -8 73 5 0 14 -13
21 -29z m-210 -51 c23 -23 25 -47 6 -72 -18 -24 -28 -23 -59 10 -32 33 -32 36
-10 62 22 25 38 25 63 0z m180 -55 c15 -24 20 -44 16 -60 -9 -34 -20 -31 -45
10 -16 27 -18 41 -11 60 5 14 11 25 14 25 2 0 14 -16 26 -35z m-279 -86 c16
-17 29 -34 29 -38 0 -3 -14 -22 -30 -41 l-29 -35 -40 45 c-23 24 -41 50 -41
57 0 12 45 40 68 42 8 1 27 -13 43 -30z m404 -21 l16 -33 -21 24 c-11 13 -20
27 -20 32 0 18 10 8 25 -23z m-181 -15 c23 -33 24 -38 10 -64 -17 -33 -33 -30
-58 11 -16 29 -16 31 1 60 9 17 18 30 20 30 1 0 13 -16 27 -37z m184 -111 c-4
-31 -17 -32 -41 0 -14 19 -18 34 -12 55 l7 28 24 -30 c14 -17 23 -40 22 -53z
m-539 -7 c17 -20 31 -39 31 -43 -1 -4 -16 -25 -35 -47 l-34 -40 -35 40 c-19
22 -35 42 -36 45 0 9 61 80 70 80 4 0 22 -16 39 -35z m291 -59 c0 -12 -43 -76
-51 -76 -8 0 -59 66 -59 76 0 4 12 23 27 42 l27 35 28 -33 c15 -19 28 -39 28
-44z m188 -10 c18 -27 21 -38 13 -60 -6 -14 -13 -26 -15 -26 -3 0 -17 15 -31
34 -22 30 -24 37 -14 60 7 14 15 26 18 26 3 0 16 -15 29 -34z m172 -113 c0
-13 -3 -23 -8 -23 -14 0 -45 69 -38 86 6 16 10 14 26 -11 11 -17 20 -40 20
-52z m-807 27 c44 -35 44 -57 1 -101 -21 -21 -41 -39 -44 -39 -4 0 -21 18 -40
41 l-32 41 38 39 c21 21 41 39 45 39 3 0 18 -9 32 -20z m305 -20 c29 -38 28
-48 -7 -88 -25 -30 -31 -32 -48 -21 -12 7 -28 24 -36 39 -15 25 -15 28 14 63
17 20 36 37 43 37 7 0 22 -13 34 -30z m256 -27 l25 -37 -19 -30 c-26 -42 -34
-42 -65 -2 l-27 35 22 36 c12 19 26 35 30 35 5 0 21 -17 34 -37z m392 -9 c12
-3 26 -16 32 -29 10 -23 10 -23 -16 -14 -15 5 -33 18 -40 29 -13 21 -10 23 24
14z m-176 -72 c0 -9 -4 -23 -9 -31 -8 -12 -12 -13 -26 -1 -28 24 -36 47 -24
77 l11 28 24 -28 c13 -15 24 -36 24 -45z m-941 -54 c17 -17 31 -37 31 -44 0
-6 -20 -28 -45 -48 -39 -32 -47 -35 -64 -24 -11 7 -26 25 -32 41 -11 26 -9 31
27 68 21 21 41 39 45 39 4 0 21 -14 38 -32z m325 -10 c14 -17 26 -35 26 -38 0
-3 -18 -23 -39 -44 -44 -43 -58 -43 -90 3 l-22 30 37 41 c20 22 42 40 49 40 7
0 24 -14 39 -32z m290 -9 c14 -17 26 -34 26 -37 0 -4 -14 -23 -30 -42 -32 -39
-47 -37 -83 12 l-19 26 27 36 c15 20 33 36 40 36 7 0 25 -14 39 -31z m666 5
c0 -2 -7 -4 -15 -4 -8 0 -15 4 -15 10 0 5 7 7 15 4 8 -4 15 -8 15 -10z m-416
-25 c26 -30 26 -31 9 -61 -30 -51 -39 -52 -69 -13 l-27 36 19 34 c23 43 35 44
68 4z m190 22 c3 -5 -1 -11 -9 -14 -9 -4 -12 -1 -8 9 6 16 10 17 17 5z m138
-8 c8 -10 18 -26 21 -36 6 -15 4 -16 -13 -7 -18 9 -40 40 -40 54 0 12 17 5 32
-11z m-1502 -27 c0 -3 -4 -8 -10 -11 -5 -3 -10 -1 -10 4 0 6 5 11 10 11 6 0
10 -2 10 -4z m-36 -35 c3 -5 -1 -14 -8 -20 -12 -10 -14 -9 -11 6 2 10 4 19 4
21 2 5 10 2 15 -7z m1470 -30 l15 -29 -35 -7 c-62 -11 -91 37 -31 54 17 5 33
10 34 10 1 1 9 -12 17 -28z m246 -2 c0 -5 3 -8 8 -6 4 3 13 -2 21 -10 12 -13
11 -14 -10 -8 -13 4 -31 13 -39 21 -12 12 -12 14 3 14 9 0 17 -5 17 -11z
m-1555 -56 c14 -15 25 -33 25 -38 0 -6 -18 -29 -41 -50 l-40 -40 -30 33 c-16
18 -29 39 -29 46 0 15 64 76 80 76 5 0 21 -12 35 -27z m319 11 c9 -8 21 -25
27 -36 12 -22 -3 -44 -54 -80 l-29 -20 -28 33 c-16 19 -29 39 -29 44 0 10 78
75 91 75 4 0 14 -7 22 -16z m330 -17 c15 -19 26 -38 26 -43 0 -6 -20 -26 -44
-47 l-44 -37 -32 36 -32 37 43 43 c24 24 46 44 51 44 4 0 18 -15 32 -33z m316
-48 c0 -8 -16 -31 -36 -50 l-36 -34 -29 35 c-16 19 -29 38 -29 42 0 4 17 26
37 49 l37 41 28 -34 c15 -18 28 -40 28 -49z m496 58 c0 -1 8 -14 17 -29 17
-27 17 -28 -1 -28 -25 0 -59 26 -65 51 -5 18 -3 20 21 14 15 -4 27 -7 28 -8z
m207 -65 c25 -22 21 -33 -10 -26 -30 7 -63 31 -63 46 0 12 52 -2 73 -20z
m-3884 -39 c21 -58 9 -68 -55 -47 -27 9 -50 18 -51 18 -1 1 0 12 4 25 3 13 11
20 19 17 8 -3 14 1 14 8 0 16 17 26 39 23 8 -1 21 -21 30 -44z m3557 29 c20
-17 44 -53 44 -67 0 -8 -52 2 -60 12 -4 4 -12 23 -18 41 -13 37 0 42 34 14z
m-1686 -27 c10 -12 10 -15 -4 -15 -9 0 -16 7 -16 15 0 8 2 15 4 15 2 0 9 -7
16 -15z m2190 -10 c10 -12 9 -15 -8 -15 -11 0 -25 7 -32 15 -10 12 -9 15 8 15
11 0 25 -7 32 -15z m-4210 -10 c0 -2 -13 -11 -30 -20 -16 -9 -30 -11 -30 -6 0
7 22 19 58 30 1 1 2 -1 2 -4z m3925 -46 c19 -36 19 -39 -6 -39 -32 0 -56 17
-67 48 -9 27 -9 28 25 24 25 -3 38 -12 48 -33z m-1718 -11 c19 -20 20 -25 8
-42 -14 -19 -16 -18 -55 9 -22 15 -40 30 -40 33 0 3 8 13 18 22 19 20 35 14
69 -22z m312 11 c17 -17 31 -36 31 -43 0 -7 -15 -27 -33 -44 l-34 -33 -29 23
c-58 45 -58 44 -18 88 20 22 40 40 44 40 5 0 22 -14 39 -31z m327 -14 l27 -36
-33 -34 c-19 -19 -38 -35 -44 -35 -13 0 -66 51 -66 64 0 15 62 76 76 76 7 0
25 -16 40 -35z m330 -28 c4 -14 -3 -29 -24 -49 -24 -25 -35 -29 -59 -24 -17 4
-36 18 -43 32 -13 23 -11 27 25 64 l38 39 28 -22 c16 -11 32 -29 35 -40z m935
40 c9 -5 21 -18 28 -28 10 -17 7 -19 -34 -19 -39 0 -46 3 -60 30 -8 16 -15 32
-15 35 0 9 60 -5 81 -18z m-2205 -17 c21 0 17 -13 -15 -44 -19 -18 -37 -27
-52 -24 -33 4 -30 19 11 64 28 31 35 35 38 21 2 -9 10 -17 18 -17z m2402 -36
c37 -24 23 -36 -29 -25 -4 0 -14 13 -24 27 -16 26 -16 26 7 19 12 -4 33 -13
46 -21z m-4250 -12 l23 -18 -21 -27 c-18 -22 -30 -27 -66 -27 -48 0 -49 1 -33
33 30 59 57 69 97 39z m-160 -16 c5 -25 -18 -76 -33 -76 -20 0 -45 11 -45 20
0 4 7 23 14 42 11 27 20 34 38 33 13 -1 24 -9 26 -19z m3712 -5 c5 -11 10 -34
10 -51 l0 -32 -26 17 c-26 16 -27 16 -58 -14 -35 -34 -63 -40 -72 -16 -9 22
22 64 51 71 14 3 22 10 19 15 -10 16 7 29 36 29 19 0 33 -7 40 -19z m164 9
c21 -8 56 -54 56 -75 0 -3 -14 -5 -30 -5 -36 0 -80 39 -80 70 0 22 15 25 54
10z m-1689 -42 l36 -31 -37 -39 c-21 -21 -43 -38 -49 -38 -6 0 -26 13 -45 29
l-35 29 40 41 c21 23 42 41 47 41 4 0 23 -14 43 -32z m-1665 -41 c10 -32 9
-42 -4 -62 -20 -30 -24 -31 -53 -3 -30 28 -29 43 3 85 29 38 36 36 54 -20z
m1960 8 c32 -33 33 -35 16 -60 -21 -32 -29 -32 -66 5 -34 34 -37 46 -13 72 22
24 24 23 63 -17z m1840 5 l21 -30 -33 0 c-22 0 -43 9 -61 25 -15 14 -27 28
-27 30 0 3 18 5 39 5 33 0 43 -5 61 -30z m-1508 -34 c19 -20 18 -24 -26 -73
-25 -29 -27 -29 -65 4 -39 34 -39 49 1 90 31 32 32 32 52 15 12 -9 29 -26 38
-36z m1296 18 c28 -31 21 -44 -24 -44 -28 0 -38 6 -54 33 -11 17 -20 36 -20
41 0 17 76 -6 98 -30z m-999 0 c38 -32 39 -41 1 -82 -33 -36 -46 -35 -89 11
l-23 25 28 36 c16 20 34 36 41 36 6 0 25 -12 42 -26z m1409 -21 c12 -16 10
-18 -14 -21 -24 -3 -74 29 -74 49 0 13 75 -10 88 -28z m-2659 14 c8 -10 1 -23
-29 -52 l-40 -39 -36 19 -36 19 37 33 c40 35 84 43 104 20z m-1784 -47 c4 -6
-3 -26 -15 -45 -18 -29 -28 -35 -56 -35 -19 0 -34 2 -34 4 0 1 5 17 11 33 14
41 77 70 94 43z m-362 -7 c2 -5 0 -23 -5 -41 -8 -31 -10 -32 -46 -26 -20 4
-38 8 -40 9 -2 1 9 17 23 34 25 29 58 41 68 24z m4983 -40 c-7 -7 -46 16 -46
28 0 5 11 2 25 -7 14 -9 24 -19 21 -21z m-2337 -5 c38 -39 38 -48 5 -87 -38
-45 -62 -41 -112 21 -11 14 -8 22 24 57 20 23 40 41 44 41 4 0 22 -14 39 -32z
m1413 -24 l4 -32 -33 31 c-24 23 -30 34 -22 43 17 20 47 -4 51 -42z m-1722
-28 c0 -7 -17 -29 -39 -50 l-38 -38 -37 32 c-20 18 -36 37 -36 44 0 14 59 72
79 78 16 4 71 -47 71 -66z m2317 64 c24 -9 53 -44 53 -65 0 -10 -66 17 -87 37
-39 37 -26 48 34 28z m-384 -45 c9 -20 17 -38 17 -40 0 -3 -20 -5 -43 -5 -44
0 -67 15 -80 52 -8 23 1 28 48 28 37 0 43 -3 58 -35z m215 2 c16 -27 16 -29
-3 -40 -11 -7 -33 -15 -48 -18 -22 -5 -31 -2 -43 17 -21 31 -15 45 27 60 43
16 47 15 67 -19z m-4288 8 c0 -9 -7 -29 -15 -45 -16 -30 -38 -37 -65 -20 -12
8 -12 13 3 44 14 30 22 36 47 36 20 0 30 -5 30 -15z m3091 -43 c11 -20 9 -26
-21 -57 -19 -19 -37 -35 -40 -35 -4 0 -24 15 -46 34 l-39 34 42 42 c42 42 42
42 67 23 14 -10 30 -28 37 -41z m1572 47 c12 -6 29 -20 36 -31 12 -20 11 -21
-24 -15 -33 5 -64 29 -65 50 0 10 25 9 53 -4z m-4178 -29 c12 -24 13 -35 4
-51 l-11 -21 -20 20 c-15 15 -19 27 -13 51 8 39 20 39 40 1z m2263 -4 l37 -34
-24 -26 c-14 -14 -27 -26 -31 -26 -4 0 -23 17 -43 37 l-37 37 22 23 c12 13 25
23 30 23 5 0 25 -15 46 -34z m862 -5 c-26 -51 -45 -65 -36 -25 6 24 38 64 52
64 3 0 -5 -18 -16 -39z m-4062 -11 c-38 -35 -60 -40 -32 -7 24 28 36 37 52 37
7 0 -2 -13 -20 -30z m2220 14 c31 -21 28 -34 -16 -78 l-39 -37 -36 23 c-20 13
-36 26 -37 29 0 11 79 79 93 79 7 0 23 -7 35 -16z m-2358 -29 c-7 -9 -15 -13
-17 -11 -7 7 7 26 19 26 6 0 6 -6 -2 -15z m5463 -13 c24 -21 21 -30 -8 -25
-13 3 -31 15 -39 28 -14 22 -14 23 7 18 12 -3 30 -13 40 -21z m-1541 -44 c-7
-7 -12 -8 -12 -2 0 14 12 26 19 19 2 -3 -1 -11 -7 -17z m1250 -11 c16 -21 16
-22 0 -29 -41 -16 -71 -9 -87 22 -21 41 -20 43 28 36 26 -4 48 -15 59 -29z
m201 -18 c22 -28 18 -32 -26 -24 -24 5 -38 15 -46 32 -12 25 -11 26 21 19 18
-3 41 -16 51 -27z"/>
<path d="M3275 5130 c3 -5 8 -10 11 -10 2 0 4 5 4 10 0 6 -5 10 -11 10 -5 0
-7 -4 -4 -10z"/>
<path d="M3251 5084 c0 -11 3 -14 6 -6 3 7 2 16 -1 19 -3 4 -6 -2 -5 -13z"/>
<path d="M3710 3830 c8 -5 20 -10 25 -10 6 0 3 5 -5 10 -8 5 -19 10 -25 10 -5
0 -3 -5 5 -10z"/>
<path d="M3858 3783 c7 -3 16 -2 19 1 4 3 -2 6 -13 5 -11 0 -14 -3 -6 -6z"/>
<path d="M3998 3753 c6 -2 18 -2 25 0 6 3 1 5 -13 5 -14 0 -19 -2 -12 -5z"/>
<path d="M4053 3743 c9 -2 25 -2 35 0 9 3 1 5 -18 5 -19 0 -27 -2 -17 -5z"/>
<path d="M2776 883 c-6 -14 -5 -15 5 -6 7 7 10 15 7 18 -3 3 -9 -2 -12 -12z"/>
<path d="M2693 837 c-18 -18 -35 -45 -39 -62 l-7 -30 23 20 c21 19 70 88 70
100 0 12 -17 2 -47 -28z"/>
<path d="M2672 738 c-20 -20 -14 -40 11 -36 14 2 22 10 22 22 0 24 -16 31 -33
14z"/>
</g>
</svg>
